<svg xmlns="http://www.w3.org/2000/svg" class="svg-icon"
    style="width:1em;height:1em;vertical-align:middle;fill:currentColor;overflow:hidden"
    viewBox="0 0 1024 1024">
    <path
        d="M618.326 420.943v-67.36c-.252-18.521-6.88-112.288-112.482-112.288-105.598 0-112.227 93.766-112.478 112.58v67.068h224.96zm-89.988 173.446c13.403-7.782 22.513-22.119 22.491-38.684 0-24.825-20.156-44.927-44.985-44.927-24.825 0-44.981 20.102-44.981 44.927 0 16.565 9.11 30.901 22.491 38.684v73.603h44.984v-73.603zM512 960C264.576 960 64 759.424 64 512S264.576 64 512 64s448 200.576 448 448-200.576 448-448 448zm151.307-539.038v-67.38s-.019-157.195-157.463-157.195c-157.44 0-157.459 157.195-157.459 157.195v67.38h-67.498v314.413h449.918V420.962h-67.498z" />
</svg>